<svg width="287" height="107" viewBox="0 0 287 107" fill="none" xmlns="http://www.w3.org/2000/svg">
<mask id="mask0_6640_5062" style="mask-type:luminance" maskUnits="userSpaceOnUse" x="0" y="0" width="287" height="107">
<path d="M287 0H0V106.967H287V0Z" fill="white"/>
</mask>
<g mask="url(#mask0_6640_5062)">
<path d="M0 106.967H287C287 106.967 283.626 69.5574 269.841 26.8944C256.051 -15.7706 231.784 -5.3726 227.905 41.7934C224.029 88.9573 191.285 57.9808 167.949 70.8437C167.949 70.8437 137.216 99.4631 119.051 67.4136C100.885 35.3599 76.6871 39.4342 59.382 67.4136C42.0756 95.3888 8.18427 104.397 0 106.967Z" fill="#00DEB0"/>
</g>
<mask id="mask1_6640_5062" style="mask-type:luminance" maskUnits="userSpaceOnUse" x="4" y="26" width="283" height="81">
<path d="M286.99 26.0518H4.98206V106.967H286.99V26.0518Z" fill="white"/>
</mask>
<g mask="url(#mask1_6640_5062)">
<path d="M5.16928 106.967H286.928C286.928 106.967 255.48 103.829 236.954 88.8297C218.428 73.9698 197.102 9.88514 171.828 30.199C146.551 50.5207 143.751 111.196 120.199 81.3313C96.646 51.4718 85.9492 66.4714 78.6251 78.1986C71.3024 89.9231 69.65 46.1576 60.0992 63.7444C50.6218 81.3313 24.1974 106.967 5.16928 106.967Z" fill="#39AAB0"/>
</g>
<mask id="mask2_6640_5062" style="mask-type:luminance" maskUnits="userSpaceOnUse" x="11" y="26" width="270" height="81">
<path d="M280.538 26.808H11.3754V106.967H280.538V26.808Z" fill="white"/>
</mask>
<g mask="url(#mask2_6640_5062)">
<path d="M280.323 106.967C262.228 102.333 240.76 80.517 232.356 65.1091C230.492 61.6998 228.839 60.198 227.187 60.6063C224.458 61.157 222.52 66.7426 220.726 72.0648C219.288 76.2883 217.783 80.7884 216.131 81.1994C215.413 81.4708 214.621 80.7884 213.833 79.4236C205.36 65.7889 194.373 53.6559 171.54 82.5616C157.827 100.017 151.578 85.9709 142.961 66.7426C137.217 53.9273 130.684 39.4731 120.488 31.2923C103.183 17.3861 87.6714 42.2001 74.0291 64.1553C67.2808 74.9235 60.8905 85.1515 54.9302 89.923C41.6472 100.696 21.5411 105.331 11.4158 106.967H22.3291C32.7415 104.24 45.8122 99.7401 55.3603 92.1072C61.5356 87.0617 67.9981 76.8363 74.8199 65.9285C88.2472 44.516 103.399 20.1131 119.984 33.4765C129.893 41.3859 136.284 55.7005 141.956 68.3788C150.645 87.7441 157.538 103.147 172.188 84.6061C196.169 54.3383 206.723 71.2428 212.97 81.3312C214.047 83.1043 215.197 83.9264 216.274 83.5154C218.428 82.9726 220.007 78.3328 221.732 73.29C223.381 68.3788 225.106 63.3333 227.331 62.9249C228.553 62.6535 229.989 63.8839 231.496 66.7426C239.109 80.6488 256.987 99.4687 273.789 106.967H280.323Z" fill="#FAF740"/>
</g>
</svg>
