<svg width="198" height="232" viewBox="0 0 198 232" fill="none" xmlns="http://www.w3.org/2000/svg">
<g id="Capa 1">
<g id="Group">
<path id="Vector" d="M131.776 88.2212L127.822 86.6674L123.862 85.1135L122.011 84.3948L118.057 82.841L52.3893 57.092L182.89 5.92415L190.604 2.90057L198 0V86.1365L162.228 100.16L131.776 88.2212Z" fill="#008588"/>
<path id="Vector_2" d="M2.88607 69.3546L5.77861 70.4877L22.202 76.9298L27.9742 79.1958H27.9807L33.0733 81.19L33.7528 81.4554L36.8653 82.6791L70.327 95.7964L73.9507 97.2208L74.2872 97.3503L74.7531 97.5316L78.2475 98.9041L108.7 110.843H108.707L194.059 144.316L197.961 145.844L198 145.857V232L197.961 231.981H197.955L190.299 228.983L0 154.358V68.2216L2.88607 69.3546Z" fill="#00DEBC"/>
</g>
</g>
</svg>
